#!OML:ASF F:\VICON\USERDATA\INSTALL\rory3\rory3.ASF
:FULLY-SPECIFIED
:DEGREES
660
root 2.52944 9.30558 -5.63317 362.62 -46.9737 359.049
lowerback 13.9009 1.16846 -0.194848
upperback 8.37823 1.29664 2.52594
thorax 0.968526 0.482327 2.57827
lowerneck -22.4865 0.0753048 -9.01629
upperneck 13.551 2.76363 0.710372
head 7.7275 0.888875 2.03082
rclavicle -1.66979e-014 -1.59028e-015
rhumerus -14.2331 9.80746 -81.2385
rradius 97.9986
rwrist 30.6961
rhand -23.6972 14.4021
rfingers 7.12502
rthumb 2.7698 -15.5597
lclavicle -1.66979e-014 -1.59028e-015
lhumerus -7.55333 -10.0112 88.4333
lradius 84.4515
lwrist -21.9689
lhand -19.5627 12.7567
lfingers 7.12502
lthumb 6.76199 42.6287
rfemur -101.567 -19.6827 19.7216
rtibia 112.603
rfoot -4.55513 4.97927
rtoes -3.0418
lfemur -103.189 17.8879 -23.6699
ltibia 110.102
lfoot -5.13525 -21.1427
ltoes -3.43723
661
root 2.5288 9.31436 -5.62859 362.775 -47.0137 358.962
lowerback 14.0248 1.03377 -0.251131
upperback 8.36371 1.11329 2.69125
thorax 0.892728 0.383893 2.80573
lowerneck -22.3804 0.255533 -9.25582
upperneck 13.6083 3.06653 0.733768
head 7.71062 1.02037 2.11351
rclavicle 4.33351e-014 3.33958e-014
rhumerus -14.2465 10.4285 -81.1137
rradius 98.2432
rwrist 30.6715
rhand -23.688 14.2455
rfingers 7.12502
rthumb 2.77868 -15.7161
lclavicle 4.33351e-014 3.33958e-014
lhumerus -7.80905 -9.42504 88.5647
lradius 84.6757
lwrist -21.8792
lhand -19.9049 12.6283
lfingers 7.12502
lthumb 6.43161 42.5106
rfemur -101.55 -19.6735 19.7031
rtibia 112.549
rfoot -4.54277 5.29545
rtoes -2.98755
lfemur -103.218 17.9108 -23.5996
ltibia 110.07
lfoot -5.33882 -20.9742
ltoes -4.01205
662
root 2.52647 9.32185 -5.62505 362.965 -46.9508 358.894
lowerback 14.06 0.935005 -0.107511
upperback 8.41555 0.996087 2.70696
thorax 0.937269 0.327963 2.75658
lowerneck -22.305 0.321961 -9.41921
upperneck 13.5651 3.16348 0.915742
head 7.67215 1.07915 2.21078
rclavicle -7.11649e-014 -1.59028e-014
rhumerus -14.1858 10.6234 -81.1067
rradius 98.5019
rwrist 30.749
rhand -23.5193 14.1692
rfingers 7.12502
rthumb 2.94161 -15.7902
lclavicle -7.11649e-014 -1.59028e-014
lhumerus -7.80858 -9.17043 88.4308
lradius 84.9292
lwrist -22.1046
lhand -19.5643 12.6415
lfingers 7.12502
lthumb 6.76042 42.5136
rfemur -101.617 -19.7593 19.7196
rtibia 112.511
rfoot -4.57771 5.56456
rtoes -3.12487
lfemur -103.313 17.8269 -23.5527
ltibia 110.044
lfoot -5.54906 -20.7158
ltoes -4.08356
663
root 2.5226 9.32755 -5.6204 363.325 -46.8872 358.691
lowerback 14.0446 0.882881 0.170054
upperback 8.47171 0.954786 2.68659
thorax 1.01168 0.315956 2.58436
lowerneck -22.3201 0.372731 -9.25408
upperneck 13.6096 3.18579 0.910673
head 7.69041 1.09679 2.18684
rclavicle -2.18663e-014 1.98785e-014
rhumerus -14.1064 10.6498 -81.1889
rradius 98.7468
rwrist 30.773
rhand -23.5477 13.9556
rfingers 7.12502
rthumb 2.91419 -16.0043
lclavicle -2.18663e-014 1.98785e-014
lhumerus -7.78493 -9.25673 88.305
lradius 85.1962
lwrist -22.2015
lhand -19.4384 12.9054
lfingers 7.12502
lthumb 6.88194 42.7735
rfemur -101.745 -19.8054 19.8912
rtibia 112.462
rfoot -4.6667 5.75405
rtoes -3.29895
lfemur -103.515 17.7831 -23.4641
ltibia 110.031
lfoot -5.91308 -20.5397
ltoes -4.66776
664
root 2.51703 9.33389 -5.61626 363.654 -46.8575 358.491
lowerback 14.1359 0.875877 0.314125
upperback 8.47121 0.96215 2.75826
thorax 0.963978 0.322549 2.57648
lowerneck -22.2377 0.418193 -9.10636
upperneck 13.6567 3.21862 0.779158
head 7.69596 1.10502 2.12329
rclavicle -6.75868e-015 3.02153e-014
rhumerus -14.1256 10.6368 -81.1472
rradius 98.9015
rwrist 30.9008
rhand -23.7292 14.0036
rfingers 7.12502
rthumb 2.73884 -15.9586
lclavicle -6.75868e-015 3.02153e-014
lhumerus -7.90621 -9.33073 88.3659
lradius 85.4509
lwrist -22.2414
lhand -19.5247 12.9177
lfingers 7.12502
lthumb 6.79862 42.7885
rfemur -101.782 -19.8091 20.0617
rtibia 112.399
rfoot -4.81402 5.91212
rtoes -3.31733
lfemur -103.661 17.801 -23.366
ltibia 110.024
lfoot -6.49239 -20.5566
ltoes -6.49695
665
root 2.51231 9.34299 -5.614 363.694 -46.8779 358.602
lowerback 14.3649 0.934069 0.195112
upperback 8.43484 1.0293 2.82256
thorax 0.798294 0.35096 2.70016
lowerneck -22.182 0.422586 -9.08405
upperneck 13.8357 3.22897 0.716959
head 7.74848 1.0979 2.10232
rclavicle -1.70955e-014 3.97569e-015
rhumerus -14.2639 10.4835 -80.9523
rradius 99.0839
rwrist 31.1567
rhand -23.5271 14.3832
rfingers 7.12502
rthumb 2.93402 -15.5763
lclavicle -1.70955e-014 3.97569e-015
lhumerus -8.07539 -9.4217 88.5043
lradius 85.6439
lwrist -22.2995
lhand -19.6665 12.7879
lfingers 7.12502
lthumb 6.66175 42.6632
rfemur -101.76 -19.8166 19.9988
rtibia 112.324
rfoot -5.048 6.07194
rtoes -3.61877
lfemur -103.656 17.8105 -23.428
ltibia 110.011
lfoot -7.02694 -20.5033
ltoes -8.43806
666
root 2.50817 9.35474 -5.60953 363.67 -46.949 358.801
lowerback 14.522 1.0052 0.0649574
upperback 8.42777 1.10902 2.82151
thorax 0.70165 0.386506 2.76043
lowerneck -22.1854 0.416251 -8.99796
upperneck 14.1183 3.20979 0.684297
head 7.84736 1.07939 2.0799
rclavicle -1.19271e-014 2.06736e-014
rhumerus -14.4807 10.345 -80.7994
rradius 99.3796
rwrist 31.3461
rhand -23.2734 14.5357
rfingers 7.12502
rthumb 3.1791 -15.4204
lclavicle -1.19271e-014 2.06736e-014
lhumerus -8.21781 -9.53231 88.5567
lradius 85.8399
lwrist -22.4405
lhand -19.6646 12.6255
lfingers 7.12502
lthumb 6.66365 42.5007
rfemur -101.745 -19.8007 19.9189
rtibia 112.223
rfoot -5.3249 6.16656
rtoes -4.18205
lfemur -103.651 17.8397 -23.5362
ltibia 110.035
lfoot -7.68205 -20.3438
ltoes -10.0946
667
root 2.50434 9.36314 -5.60145 363.829 -46.963 358.848
lowerback 14.5122 1.01909 0.13558
upperback 8.45946 1.13327 2.8198
thorax 0.74067 0.40018 2.71578
lowerneck -22.0925 0.410482 -9.04666
upperneck 14.2771 3.18921 0.806244
head 7.8831 1.0746 2.12762
rclavicle -7.95139e-015 2.62396e-014
rhumerus -14.623 10.3232 -80.6893
rradius 99.7053
rwrist 31.4505
rhand -23.2284 14.2514
rfingers 7.12502
rthumb 3.2225 -15.704
lclavicle -7.95139e-015 2.62396e-014
lhumerus -8.26781 -9.59752 88.5592
lradius 86.0366
lwrist -22.6465
lhand -19.6068 12.3438
lfingers 7.12502
lthumb 6.7194 42.2172
rfemur -101.815 -19.8362 19.9572
rtibia 112.148
rfoot -5.58076 6.2654
rtoes -4.14708
lfemur -103.712 17.8128 -23.5716
ltibia 110.092
lfoot -8.87383 -20.1164
ltoes -12.0716
668
root 2.49914 9.36847 -5.59226 364.034 -46.9979 358.793
lowerback 14.4975 1.01342 0.309575
upperback 8.51183 1.14207 2.79304
thorax 0.80743 0.409733 2.58885
lowerneck -21.9013 0.473651 -9.07077
upperneck 14.3447 3.22661 1.00325
head 7.86689 1.11085 2.20141
rclavicle -2.82274e-014 3.10104e-014
rhumerus -14.7128 10.3214 -80.7116
rradius 99.9726
rwrist 31.6405
rhand -23.3491 13.7048
rfingers 7.12502
rthumb 3.10593 -16.2523
lclavicle -2.82274e-014 3.10104e-014
lhumerus -8.28963 -9.67621 88.4644
lradius 86.2161
lwrist -22.8839
lhand -19.5238 12.2424
lfingers 7.12502
lthumb 6.79953 42.1132
rfemur -101.875 -19.8421 20.0235
rtibia 112.107
rfoot -5.78222 6.41472
rtoes -3.69925
lfemur -103.731 17.8711 -23.5962
ltibia 110.193
lfoot -10.4721 -19.7396
ltoes -14.7197
669
root 2.49422 9.38049 -5.58498 364.048 -47.0846 358.954
lowerback 14.5741 1.04213 0.203867
upperback 8.54085 1.16572 2.77317
thorax 0.794986 0.417399 2.62407
lowerneck -21.7738 0.549938 -9.00471
upperneck 14.5319 3.28821 1.07449
head 7.90454 1.14526 2.2242
rclavicle 3.18055e-014 -1.43125e-014
rhumerus -14.8043 10.3469 -80.7106
rradius 100.158
rwrist 31.7628
rhand -23.4846 13.6241
rfingers 7.12502
rthumb 2.97509 -16.3349
lclavicle 3.18055e-014 -1.43125e-014
lhumerus -8.34659 -9.72104 88.4109
lradius 86.3573
lwrist -23.0805
lhand -19.7277 12.4713
lfingers 7.12502
lthumb 6.60273 42.3484
rfemur -101.862 -19.8345 19.9192
rtibia 112.05
rfoot -5.95222 6.65301
rtoes -3.13235
lfemur -103.667 17.9461 -23.6996
ltibia 110.262
lfoot -11.614 -19.3366
ltoes -16.4779
670
root 2.48916 9.39485 -5.57767 364.225 -47.126 358.948
lowerback 14.8653 1.08568 0.0854898
upperback 8.39695 1.22021 2.8859
thorax 0.481743 0.441303 2.79737
lowerneck -21.6004 0.623361 -8.90389
upperneck 14.8744 3.36983 0.961746
head 7.9912 1.16525 2.18389
rclavicle -8.0309e-014 -2.46493e-014
rhumerus -15.1673 10.4709 -80.5878
rradius 100.382
rwrist 31.6651
rhand -23.6945 13.7113
rfingers 7.12502
rthumb 2.77236 -16.2504
lclavicle -8.0309e-014 -2.46493e-014
lhumerus -8.71154 -9.73804 88.5879
lradius 86.6232
lwrist -23.1909
lhand -19.8161 12.543
lfingers 7.12502
lthumb 6.51736 42.4227
rfemur -101.84 -19.808 19.9396
rtibia 111.971
rfoot -6.11921 6.88528
rtoes -2.96373
lfemur -103.715 18.0119 -23.6532
ltibia 110.344
lfoot -12.2932 -18.9375
ltoes -16.9967
671
root 2.483 9.40845 -5.56932 364.458 -47.1411 358.907
lowerback 14.8973 1.08739 0.240433
upperback 8.42282 1.23929 2.85014
thorax 0.495251 0.456003 2.66939
lowerneck -21.4876 0.6858 -8.70311
upperneck 15.0492 3.40153 0.886227
head 8.03422 1.17794 2.13213
rclavicle 1.03368e-014 3.97569e-014
rhumerus -15.3291 10.4045 -80.6482
rradius 100.637
rwrist 31.5571
rhand -23.7273 13.8941
rfingers 7.12502
rthumb 2.74073 -16.0681
lclavicle 1.03368e-014 3.97569e-014
lhumerus -8.79374 -9.82738 88.5447
lradius 86.9106
lwrist -23.3769
lhand -19.815 12.4718
lfingers 7.12502
lthumb 6.51843 42.3515
rfemur -101.877 -19.8111 19.9874
rtibia 111.904
rfoot -6.20765 7.19253
rtoes -3.44033
lfemur -103.822 18.053 -23.6557
ltibia 110.455
lfoot -12.8683 -18.1408
ltoes -16.8674
672
root 2.47768 9.4264 -5.56111 364.597 -47.1461 358.985
lowerback 14.9889 1.09081 0.274985
upperback 8.40413 1.24976 2.83734
thorax 0.427605 0.46307 2.63375
lowerneck -21.2888 0.723896 -8.67422
upperneck 15.2702 3.41313 0.972594
head 8.07303 1.18718 2.15935
rclavicle 1.05356e-013 -2.62396e-014
rhumerus -15.5656 10.3431 -80.6694
rradius 100.931
rwrist 31.5763
rhand -23.6812 14.1481
rfingers 7.12502
rthumb 2.78529 -15.8135
lclavicle 1.05356e-013 -2.62396e-014
lhumerus -8.99461 -9.83631 88.5636
lradius 87.2236
lwrist -23.5785
lhand -19.8051 12.4258
lfingers 7.12502
lthumb 6.528 42.3052
rfemur -101.873 -19.8458 19.9062
rtibia 111.807
rfoot -6.17919 7.47856
rtoes -3.43679
lfemur -103.869 18.0522 -23.7335
ltibia 110.567
lfoot -13.3987 -17.0444
ltoes -16.5163
673
root 2.47191 9.44055 -5.55438 364.813 -47.0686 359.026
lowerback 15.1337 1.07939 0.245177
upperback 8.33169 1.23755 2.88207
thorax 0.27361 0.456722 2.69717
lowerneck -21.1725 0.793133 -8.66325
upperneck 15.6408 3.47851 1.09072
head 8.17259 1.2184 2.21051
rclavicle 3.22031e-014 3.26007e-014
rhumerus -15.7947 10.3928 -80.6316
rradius 101.215
rwrist 31.7165
rhand -23.6853 14.0501
rfingers 7.12502
rthumb 2.78131 -15.9115
lclavicle 3.22031e-014 3.26007e-014
lhumerus -9.23704 -9.82147 88.6758
lradius 87.5105
lwrist -23.7058
lhand -19.6587 12.3581
lfingers 7.12502
lthumb 6.66932 42.2331
rfemur -101.972 -19.9521 19.861
rtibia 111.724
rfoot -6.1258 7.76382
rtoes -3.14342
lfemur -104.026 17.9864 -23.7528
ltibia 110.702
lfoot -13.7285 -15.9394
ltoes -16.066
674
root 2.46741 9.45287 -5.54479 365.078 -47.0505 358.977
lowerback 15.3018 1.09952 0.363095
upperback 8.29118 1.28288 2.90048
thorax 0.142301 0.483355 2.64098
lowerneck -21.1351 0.861446 -8.5522
upperneck 15.9791 3.54035 1.10377
head 8.27905 1.24355 2.21049
rclavicle 1.30403e-013 -5.48646e-014
rhumerus -16.0479 10.3245 -80.5899
rradius 101.578
rwrist 31.9293
rhand -23.6913 13.9355
rfingers 7.12502
rthumb 2.77551 -16.0262
lclavicle 1.30403e-013 -5.48646e-014
lhumerus -9.35101 -9.96393 88.7323
lradius 87.7189
lwrist -23.7323
lhand -19.6828 12.3924
lfingers 7.12502
lthumb 6.646 42.2681
rfemur -102.087 -20.0112 19.853
rtibia 111.653
rfoot -5.99129 8.09914
rtoes -2.65644
lfemur -104.182 17.9993 -23.7291
ltibia 110.83
lfoot -13.8878 -14.9347
ltoes -14.5292
